<svg width="32" height="32" viewBox="0 0 32 32" fill="none" xmlns="http://www.w3.org/2000/svg">
<g clip-path="url(#clip0_0_223)">
<path d="M25.8303 9.18969C26.086 8.93343 26.4183 8.76741 26.7768 8.71675C27.1352 8.66608 27.5005 8.73352 27.8172 8.90887C28.134 9.08422 28.385 9.35794 28.5323 9.68863C28.6797 10.0193 28.7154 10.389 28.634 10.7418L28.634 17.0775C28.6339 17.2964 28.5907 17.5131 28.5069 17.7154C28.423 17.9176 28.3002 18.1013 28.1453 18.256C27.9905 18.4108 27.8066 18.5335 27.6044 18.6172C27.4021 18.7009 27.1853 18.744 26.9664 18.7439C26.7475 18.7438 26.5307 18.7006 26.3285 18.6168C26.1263 18.5329 25.9425 18.4101 25.7878 18.2552C25.6331 18.1004 25.5103 17.9165 25.4266 17.7143C25.3429 17.512 25.2999 17.2952 25.3 17.0763L25.3011 14.4352L16.4034 23.333C16.0908 23.6456 15.6669 23.8212 15.2249 23.8212C14.7828 23.8212 14.3589 23.6456 14.0464 23.333C13.7338 23.0204 13.5582 22.5965 13.5582 22.1545C13.5582 21.7125 13.7338 21.2885 14.0464 20.976L25.8315 9.19086L25.8303 9.18969ZM6.99533 23.386C6.73958 23.6423 6.40735 23.8083 6.04887 23.859C5.69039 23.9096 5.32516 23.8422 5.00841 23.6668C4.69167 23.4915 4.44063 23.2178 4.29327 22.8871C4.14591 22.5564 4.11024 22.1867 4.19165 21.8339L4.19165 15.4983C4.1918 15.0561 4.36758 14.6322 4.68032 14.3197C4.99305 14.0072 5.41713 13.8317 5.85924 13.8318C6.30136 13.832 6.72531 14.0078 7.03782 14.3205C7.35033 14.6332 7.52581 15.0573 7.52566 15.4994L7.52448 18.1405L16.4222 9.24272C16.7348 8.93016 17.1587 8.75456 17.6007 8.75456C18.0428 8.75456 18.4667 8.93016 18.7793 9.24272C19.0918 9.55528 19.2674 9.9792 19.2674 10.4212C19.2674 10.8633 19.0918 11.2872 18.7793 11.5997L6.99415 23.3849L6.99533 23.386Z" fill="#7C7C7C"/>
</g>
<defs>
<clipPath id="clip0_0_223">
<rect width="32" height="32" fill="white"/>
</clipPath>
</defs>
</svg>
