<svg width="14" height="8" viewBox="0 0 14 8" fill="none" xmlns="http://www.w3.org/2000/svg">
<path d="M0.933343 0.766666C1.10001 0.6 1.29734 0.516666 1.52534 0.516666C1.7529 0.516666 1.95001 0.6 2.11668 0.766666L7.00001 5.65L11.9 0.75C12.0556 0.594444 12.25 0.516666 12.4833 0.516666C12.7167 0.516666 12.9167 0.6 13.0833 0.766666C13.25 0.933333 13.3333 1.13067 13.3333 1.35867C13.3333 1.58622 13.25 1.78333 13.0833 1.95L7.46668 7.55C7.40001 7.61667 7.32779 7.664 7.25001 7.692C7.17223 7.71956 7.0889 7.73333 7.00001 7.73333C6.91112 7.73333 6.82779 7.71956 6.75001 7.692C6.67223 7.664 6.60001 7.61667 6.53334 7.55L0.916677 1.93333C0.761121 1.77778 0.683343 1.58622 0.683343 1.35867C0.683343 1.13067 0.766676 0.933333 0.933343 0.766666Z" fill="#F2F2F2"/>
</svg>
