<svg width="30" height="30" viewBox="0 0 32 32" fill="none" xmlns="http://www.w3.org/2000/svg">
<path d="M16 32C24.8366 32 32 24.8366 32 16C32 7.16344 24.8366 0 16 0C7.16344 0 0 7.16344 0 16C0 24.8366 7.16344 32 16 32Z" fill="#001C63"/>
<path d="M16 4L16.42 5.32663H17.8L16.72 6.17085L17.14 7.49749L16 6.65327L14.86 7.49749L15.28 6.17085L14.2 5.32663H15.58L16 4ZM16 24.5025L16.42 25.8291H17.8L16.72 26.6131L17.14 28L16 27.1558L14.86 28L15.28 26.6131L14.2 25.8291H15.58L16 24.5025ZM21.04 22.8141L21.46 24.1407H22.9L21.76 24.9849L22.18 26.3116L21.04 25.4673L19.9 26.3116L20.38 24.9849L19.24 24.1407H20.62L21.04 22.8141ZM24.52 19.3166L24.94 20.6432H26.38L25.24 21.4874L25.66 22.8141L24.52 21.9698L23.38 22.8141L23.86 21.4874L22.72 20.6432H24.1L24.52 19.3166ZM26.2 14.2513L26.62 15.5779H28L26.86 16.4221L27.28 17.7487L26.2 16.9045L25.06 17.7487L25.48 16.4221L24.34 15.5779H25.72L26.2 14.2513ZM24.52 9.12563L24.94 10.5126H26.38L25.24 11.2965L25.66 12.6231L24.52 11.8392L23.38 12.6231L23.86 11.2965L22.72 10.5126H24.1L24.52 9.12563ZM21.04 5.62814L21.46 7.01507H22.9L21.76 7.799L22.18 9.12563L21.04 8.34171L19.9 9.12563L20.38 7.799L19.24 7.01507H20.62L21.04 5.62814ZM10.96 22.8141L10.54 24.1407H9.1L10.24 24.9849L9.82 26.3116L10.96 25.4673L12.1 26.3116L11.62 24.9849L12.76 24.1407H11.38L10.96 22.8141ZM7.48 19.3166L7.06 20.6432H5.62L6.76 21.4874L6.34 22.8141L7.48 21.9698L8.62 22.8141L8.14 21.4874L9.28 20.6432H7.9L7.48 19.3166ZM5.8 14.2513L5.38 15.5779H4L5.14 16.4221L4.72 17.7487L5.8 16.9045L6.94 17.7487L6.52 16.4221L7.66 15.5779H6.28L5.8 14.2513ZM7.48 9.12563L7.06 10.5126H5.62L6.76 11.2965L6.34 12.6231L7.48 11.8392L8.62 12.6231L8.14 11.2965L9.28 10.5126H7.9L7.48 9.12563ZM10.96 5.62814L10.54 7.01507H9.1L10.24 7.799L9.82 9.12563L10.96 8.34171L12.1 9.12563L11.62 7.799L12.76 7.01507H11.38L10.96 5.62814Z" fill="#CBB700"/>
</svg>
