<svg width="30" height="30" viewBox="0 0 30 30" fill="none" xmlns="http://www.w3.org/2000/svg">
<path d="M18 12V0.3C17.05 0.0999999 16.05 0 15 0C13.95 0 12.95 0.0999999 12 0.3V12H0.3C0.0999999 12.95 0 13.95 0 15C0 16.05 0.0999999 17.05 0.3 18H12V29.7C12.95 29.9 13.95 30 15 30C16.05 30 17.05 29.9 18 29.7V18H29.7C29.9 17.05 30 16.05 30 15C30 13.95 29.9 12.95 29.7 12H18Z" fill="#ED4C5C"/>
<path d="M8 9H6L6.5 6L6 3H8L7.5 6L8 9Z" fill="#ED4C5C"/>
<path d="M4 7V5L7 5.5L10 5V7L7 6.5L4 7ZM24 9H22L22.5 6L22 3H24L23.5 6L24 9Z" fill="#ED4C5C"/>
<path d="M20 7V5L23 5.5L26 5V7L23 6.5L20 7ZM8 27H6C6 27 6.5 24.75 6.5 24C6.5 23.25 6 21 6 21H8C8 21 7.5 23.25 7.5 24C7.5 24.75 8 27 8 27Z" fill="#ED4C5C"/>
<path d="M4 25V23L7 23.5L10 23V25L7 24.5L4 25ZM24 27H22L22.5 24L22 21H24L23.5 24L24 27Z" fill="#ED4C5C"/>
<path d="M20 25V23L23 23.5L26 23V25L23 24.5L20 25Z" fill="#ED4C5C"/>
</svg>
