<svg width="26" height="67" viewBox="0 0 26 28" fill="none" xmlns="http://www.w3.org/2000/svg">
<path d="M2 24C2 25.0609 2.42143 26.0783 3.17157 26.8284C3.92172 27.5786 4.93913 28 6 28H11.75C11.8163 28 11.8799 27.9737 11.9268 27.9268C11.9737 27.8799 12 27.8163 12 27.75V16.25C12 16.1837 11.9737 16.1201 11.9268 16.0732C11.8799 16.0263 11.8163 16 11.75 16H2.5C2.36739 16 2.24021 16.0527 2.14645 16.1464C2.05268 16.2402 2 16.3674 2 16.5V24ZM12 13.75V7H14V13.75C14 13.8163 14.0263 13.8799 14.0732 13.9268C14.1201 13.9737 14.1837 14 14.25 14H23C23.3407 14 23.6789 13.9419 24 13.8281C24.5844 13.6206 25.0903 13.2375 25.4484 12.7311C25.8064 12.2248 25.9991 11.6201 26 11V10C26 9.20435 25.6839 8.44129 25.1213 7.87868C24.5587 7.31607 23.7956 7 23 7H20.4662C20.4445 6.99965 20.4232 6.99362 20.4044 6.98251C20.3857 6.9714 20.3702 6.95558 20.3595 6.93664C20.3488 6.9177 20.3432 6.89628 20.3432 6.8745C20.3433 6.85273 20.3491 6.83135 20.36 6.8125C20.9386 5.83555 21.1266 4.67597 20.8861 3.56626C20.6457 2.45656 19.9946 1.47878 19.0635 0.828975C18.1323 0.179172 16.99 -0.0946109 15.8654 0.0625242C14.7409 0.219659 13.7174 0.796095 13 1.67625C12.2826 0.796095 11.2591 0.219659 10.1346 0.0625242C9.01003 -0.0946109 7.86767 0.179172 6.93653 0.828975C6.00539 1.47878 5.35432 2.45656 5.11387 3.56626C4.87342 4.67597 5.06135 5.83555 5.64 6.8125C5.65089 6.83135 5.65667 6.85273 5.65675 6.8745C5.65684 6.89628 5.65124 6.9177 5.64051 6.93664C5.62977 6.95558 5.61428 6.9714 5.59555 6.98251C5.57683 6.99362 5.55552 6.99965 5.53375 7H3C2.20435 7 1.44129 7.31607 0.87868 7.87868C0.316071 8.44129 0 9.20435 0 10V11C0.000882639 11.6201 0.193564 12.2248 0.551627 12.7311C0.909689 13.2375 1.4156 13.6206 2 13.8281C2.32113 13.9419 2.65932 14 3 14H11.75C11.8163 14 11.8799 13.9737 11.9268 13.9268C11.9737 13.8799 12 13.8163 12 13.75ZM14 4.5C14 4.00554 14.1466 3.5222 14.4213 3.11107C14.696 2.69995 15.0865 2.37952 15.5433 2.1903C16.0001 2.00108 16.5028 1.95157 16.9877 2.04803C17.4727 2.1445 17.9181 2.3826 18.2678 2.73223C18.6174 3.08186 18.8555 3.52732 18.952 4.01227C19.0484 4.49722 18.9989 4.99989 18.8097 5.45671C18.6205 5.91352 18.3 6.30397 17.8889 6.57867C17.4778 6.85338 16.9945 7 16.5 7H14V4.5ZM9.32125 2.00625C9.66375 1.9817 10.0076 2.02796 10.3315 2.14217C10.6553 2.25637 10.9521 2.43606 11.2035 2.67003C11.4548 2.904 11.6552 3.18723 11.7923 3.50208C11.9293 3.81692 12 4.15662 12 4.5V7H9.5C8.85356 6.99834 8.23289 6.74634 7.76825 6.29689C7.30362 5.84744 7.03114 5.23548 7.00802 4.58945C6.98489 3.94342 7.21291 3.31354 7.64421 2.83201C8.07552 2.35049 8.67658 2.05475 9.32125 2.00687V2.00625ZM14.25 28H20C21.0609 28 22.0783 27.5786 22.8284 26.8284C23.5786 26.0783 24 25.0609 24 24V16.5C24 16.3674 23.9473 16.2402 23.8536 16.1464C23.7598 16.0527 23.6326 16 23.5 16H14.25C14.1837 16 14.1201 16.0263 14.0732 16.0732C14.0263 16.1201 14 16.1837 14 16.25V27.75C14 27.8163 14.0263 27.8799 14.0732 27.9268C14.1201 27.9737 14.1837 28 14.25 28Z" fill="#F2F2F2"/>
</svg>

