<svg width="33" height="32" viewBox="0 0 33 32" fill="none" xmlns="http://www.w3.org/2000/svg">
<path d="M8.5 28C7.76667 28 7.13911 27.7391 6.61733 27.2173C6.09467 26.6946 5.83333 26.0666 5.83333 25.3333V13.3333C5.83333 12.9111 5.928 12.5111 6.11733 12.1333C6.30578 11.7555 6.56667 11.4444 6.9 11.2L14.9 5.19996C15.1444 5.02218 15.4 4.88885 15.6667 4.79996C15.9333 4.71107 16.2111 4.66663 16.5 4.66663C16.7889 4.66663 17.0667 4.71107 17.3333 4.79996C17.6 4.88885 17.8556 5.02218 18.1 5.19996L26.1 11.2C26.4333 11.4444 26.6947 11.7555 26.884 12.1333C27.0724 12.5111 27.1667 12.9111 27.1667 13.3333V25.3333C27.1667 26.0666 26.9058 26.6946 26.384 27.2173C25.8613 27.7391 25.2333 28 24.5 28H19.1667V18.6666H13.8333V28H8.5Z" fill="#14DC9C"/>
</svg>
