<svg width="44" height="28" viewBox="0 0 44 28" fill="none" xmlns="http://www.w3.org/2000/svg">
<path d="M22 3.30801C23.6193 4.57911 24.9283 6.20192 25.8278 8.05362C26.7273 9.90532 27.1938 11.9374 27.192 13.996C27.1932 16.054 26.7264 18.0852 25.827 19.9362C24.9275 21.7872 23.6188 23.4093 22 24.68C20.3809 23.4091 19.0721 21.7866 18.1726 19.9353C17.2731 18.084 16.8065 16.0523 16.808 13.994C16.8065 11.9357 17.2731 9.90405 18.1726 8.05272C19.0721 6.20139 20.3809 4.5789 22 3.30801ZM20.26 2.14401C18.5459 3.60716 17.17 5.42506 16.2273 7.47207C15.2846 9.51907 14.7976 11.7464 14.8 14C14.7977 16.2527 15.2843 18.479 16.2263 20.5253C17.1683 22.5715 18.5432 24.3889 20.256 25.852C18.1868 27.0136 15.8496 27.6134 13.4767 27.5918C11.1038 27.5701 8.77792 26.9278 6.73021 25.7287C4.6825 24.5296 2.9843 22.8154 1.80441 20.7565C0.624522 18.6977 0.00403856 16.3659 0.00463911 13.9929C0.00523966 11.6199 0.626904 9.28842 1.80784 7.23017C2.98877 5.17191 4.68784 3.45858 6.73615 2.26049C8.78446 1.0624 11.1107 0.421267 13.4836 0.400834C15.8565 0.380401 18.1914 0.981374 20.26 2.14401ZM23.744 25.852C25.4569 24.3889 26.8317 22.5715 27.7737 20.5253C28.7157 18.479 29.2023 16.2527 29.2 14C29.2024 11.7464 28.7155 9.51907 27.7728 7.47207C26.8301 5.42506 25.4541 3.60716 23.74 2.14401C25.8086 0.981374 28.1456 0.380401 30.5185 0.400834C32.8913 0.421267 35.2176 1.0624 37.2659 2.26049C39.3142 3.45858 41.0132 5.17191 42.1942 7.23017C43.3751 9.28842 43.9968 11.6199 43.9974 13.9929C43.998 16.3659 43.3775 18.6977 42.1976 20.7565C41.0177 22.8154 39.3195 24.5296 37.2718 25.7287C35.2241 26.9278 32.8982 27.5701 30.5253 27.5918C28.1525 27.6134 25.8152 27.0136 23.746 25.852H23.744Z" fill="#BCBCBC"/>
</svg>
