<svg width="33" height="32" viewBox="0 0 33 32" fill="none" xmlns="http://www.w3.org/2000/svg">
<path d="M8.50001 13.3334C7.03334 13.3334 5.83334 14.5334 5.83334 16C5.83334 17.4667 7.03334 18.6667 8.50001 18.6667C9.96668 18.6667 11.1667 17.4667 11.1667 16C11.1667 14.5334 9.96668 13.3334 8.50001 13.3334ZM24.5 13.3334C23.0333 13.3334 21.8333 14.5334 21.8333 16C21.8333 17.4667 23.0333 18.6667 24.5 18.6667C25.9667 18.6667 27.1667 17.4667 27.1667 16C27.1667 14.5334 25.9667 13.3334 24.5 13.3334ZM16.5 13.3334C15.0333 13.3334 13.8333 14.5334 13.8333 16C13.8333 17.4667 15.0333 18.6667 16.5 18.6667C17.9667 18.6667 19.1667 17.4667 19.1667 16C19.1667 14.5334 17.9667 13.3334 16.5 13.3334Z" fill="#7C7C7C"/>
</svg>
