<svg width="33" height="32" viewBox="0 0 33 32" fill="none" xmlns="http://www.w3.org/2000/svg">
<g clip-path="url(#clip0_0_227)">
<mask id="path-1-inside-1_0_227" fill="white">
<path fill-rule="evenodd" clip-rule="evenodd" d="M19.9587 3.86271C18.9937 3.04032 17.7672 2.58862 16.4993 2.58862C15.2314 2.58862 14.005 3.04032 13.04 3.86271L12.5387 4.28938C12.1117 4.65359 11.5807 4.87382 11.0213 4.91871L10.364 4.97205C9.09996 5.07264 7.91312 5.62031 7.01636 6.51682C6.1196 7.41334 5.5716 8.60003 5.47067 9.86405L5.41867 10.5214C5.37416 11.0806 5.1544 11.6116 4.79067 12.0387L4.36267 12.54C3.53993 13.5051 3.08801 14.7318 3.08801 16C3.08801 17.2682 3.53993 18.4949 4.36267 19.46L4.78934 19.9614C5.15355 20.3883 5.37378 20.9193 5.41867 21.4787L5.472 22.136C5.57259 23.4001 6.12027 24.5869 7.01678 25.4837C7.9133 26.3805 9.09999 26.9284 10.364 27.0294L11.0213 27.0814C11.5806 27.1259 12.1115 27.3456 12.5387 27.7094L13.04 28.136C14.0051 28.9588 15.2318 29.4107 16.5 29.4107C17.7682 29.4107 18.9949 28.9588 19.96 28.136L20.4613 27.7094C20.8885 27.3456 21.4194 27.1259 21.9787 27.0814L22.636 27.028C23.9 26.9275 25.0869 26.3798 25.9837 25.4833C26.8804 24.5868 27.4284 23.4001 27.5293 22.136L27.58 21.4787C27.6249 20.9193 27.8451 20.3883 28.2093 19.9614L28.636 19.4587C29.4584 18.4937 29.9101 17.2673 29.9101 15.9994C29.9101 14.7315 29.4584 13.5051 28.636 12.54L28.2093 12.0387C27.8451 11.6118 27.6249 11.0808 27.58 10.5214L27.528 9.86405C27.4274 8.60001 26.8797 7.41316 25.9832 6.5164C25.0867 5.61964 23.9 5.07165 22.636 4.97071L21.9787 4.91871C21.4194 4.8742 20.8885 4.65444 20.4613 4.29071L19.9587 3.86405V3.86271ZM14.7707 5.89338C15.2531 5.48236 15.8662 5.25662 16.5 5.25662C17.1338 5.25662 17.7469 5.48236 18.2293 5.89338L18.732 6.32138C19.5861 7.04932 20.648 7.48931 21.7667 7.57871L22.424 7.63205C23.0557 7.68262 23.6487 7.9565 24.0968 8.40459C24.5449 8.85268 24.8188 9.4457 24.8693 10.0774L24.9227 10.7347C25.0121 11.8534 25.4521 12.9153 26.18 13.7694L26.6067 14.272C27.0177 14.7545 27.2434 15.3676 27.2434 16.0014C27.2434 16.6352 27.0177 17.2483 26.6067 17.7307L26.18 18.2334C25.4521 19.0875 25.0121 20.1494 24.9227 21.268L24.8693 21.9254C24.8188 22.5571 24.5449 23.1501 24.0968 23.5982C23.6487 24.0463 23.0557 24.3201 22.424 24.3707L21.7667 24.424C20.648 24.5135 19.5861 24.9534 18.732 25.6814L18.2293 26.108C17.7469 26.5191 17.1338 26.7448 16.5 26.7448C15.8662 26.7448 15.2531 26.5191 14.7707 26.108L14.268 25.6814C13.4139 24.9534 12.352 24.5135 11.2333 24.424L10.576 24.3707C9.94409 24.3204 9.35075 24.0467 8.90238 23.5986C8.45402 23.1505 8.17996 22.5573 8.12934 21.9254L8.076 21.268C7.98698 20.1496 7.54746 19.0876 6.82 18.2334L6.39334 17.7307C5.98232 17.2483 5.75658 16.6352 5.75658 16.0014C5.75658 15.3676 5.98232 14.7545 6.39334 14.272L6.82 13.7694C7.54795 12.9153 7.98793 11.8534 8.07734 10.7347L8.13067 10.0774C8.18094 9.44547 8.45469 8.85213 8.90281 8.40376C9.35093 7.9554 9.94412 7.68133 10.576 7.63071L11.2333 7.57871C12.352 7.48931 13.4139 7.04932 14.268 6.32138L14.7707 5.89471V5.89338ZM21.4427 12.944C21.57 12.8211 21.6716 12.6739 21.7415 12.5113C21.8114 12.3486 21.8481 12.1736 21.8497 11.9966C21.8512 11.8195 21.8175 11.644 21.7504 11.4801C21.6834 11.3162 21.5844 11.1674 21.4592 11.0422C21.334 10.917 21.1851 10.818 21.0213 10.751C20.8574 10.6839 20.6818 10.6502 20.5048 10.6517C20.3278 10.6533 20.1528 10.69 19.9901 10.7599C19.8275 10.8298 19.6803 10.9314 19.5573 11.0587L11.5573 19.0587C11.43 19.1817 11.3284 19.3288 11.2585 19.4915C11.1887 19.6542 11.1519 19.8291 11.1503 20.0062C11.1488 20.1832 11.1825 20.3588 11.2496 20.5227C11.3166 20.6865 11.4156 20.8354 11.5408 20.9606C11.666 21.0858 11.8149 21.1848 11.9787 21.2518C12.1426 21.3188 12.3182 21.3526 12.4952 21.351C12.6722 21.3495 12.8472 21.3127 13.0099 21.2428C13.1725 21.173 13.3197 21.0714 13.4427 20.944L21.4427 12.944ZM15.1667 12.6667C15.1667 13.1971 14.956 13.7059 14.5809 14.0809C14.2058 14.456 13.6971 14.6667 13.1667 14.6667C12.6362 14.6667 12.1275 14.456 11.7525 14.0809C11.3774 13.7059 11.1667 13.1971 11.1667 12.6667C11.1667 12.1363 11.3774 11.6276 11.7525 11.2525C12.1275 10.8774 12.6362 10.6667 13.1667 10.6667C13.6971 10.6667 14.2058 10.8774 14.5809 11.2525C14.956 11.6276 15.1667 12.1363 15.1667 12.6667ZM19.8333 21.3334C20.3638 21.3334 20.8725 21.1227 21.2476 20.7476C21.6226 20.3725 21.8333 19.8638 21.8333 19.3334C21.8333 18.8029 21.6226 18.2942 21.2476 17.9192C20.8725 17.5441 20.3638 17.3334 19.8333 17.3334C19.3029 17.3334 18.7942 17.5441 18.4191 17.9192C18.0441 18.2942 17.8333 18.8029 17.8333 19.3334C17.8333 19.8638 18.0441 20.3725 18.4191 20.7476C18.7942 21.1227 19.3029 21.3334 19.8333 21.3334Z"/>
</mask>
<path fill-rule="evenodd" clip-rule="evenodd" d="M19.9587 3.86271C18.9937 3.04032 17.7672 2.58862 16.4993 2.58862C15.2314 2.58862 14.005 3.04032 13.04 3.86271L12.5387 4.28938C12.1117 4.65359 11.5807 4.87382 11.0213 4.91871L10.364 4.97205C9.09996 5.07264 7.91312 5.62031 7.01636 6.51682C6.1196 7.41334 5.5716 8.60003 5.47067 9.86405L5.41867 10.5214C5.37416 11.0806 5.1544 11.6116 4.79067 12.0387L4.36267 12.54C3.53993 13.5051 3.08801 14.7318 3.08801 16C3.08801 17.2682 3.53993 18.4949 4.36267 19.46L4.78934 19.9614C5.15355 20.3883 5.37378 20.9193 5.41867 21.4787L5.472 22.136C5.57259 23.4001 6.12027 24.5869 7.01678 25.4837C7.9133 26.3805 9.09999 26.9284 10.364 27.0294L11.0213 27.0814C11.5806 27.1259 12.1115 27.3456 12.5387 27.7094L13.04 28.136C14.0051 28.9588 15.2318 29.4107 16.5 29.4107C17.7682 29.4107 18.9949 28.9588 19.96 28.136L20.4613 27.7094C20.8885 27.3456 21.4194 27.1259 21.9787 27.0814L22.636 27.028C23.9 26.9275 25.0869 26.3798 25.9837 25.4833C26.8804 24.5868 27.4284 23.4001 27.5293 22.136L27.58 21.4787C27.6249 20.9193 27.8451 20.3883 28.2093 19.9614L28.636 19.4587C29.4584 18.4937 29.9101 17.2673 29.9101 15.9994C29.9101 14.7315 29.4584 13.5051 28.636 12.54L28.2093 12.0387C27.8451 11.6118 27.6249 11.0808 27.58 10.5214L27.528 9.86405C27.4274 8.60001 26.8797 7.41316 25.9832 6.5164C25.0867 5.61964 23.9 5.07165 22.636 4.97071L21.9787 4.91871C21.4194 4.8742 20.8885 4.65444 20.4613 4.29071L19.9587 3.86405V3.86271ZM14.7707 5.89338C15.2531 5.48236 15.8662 5.25662 16.5 5.25662C17.1338 5.25662 17.7469 5.48236 18.2293 5.89338L18.732 6.32138C19.5861 7.04932 20.648 7.48931 21.7667 7.57871L22.424 7.63205C23.0557 7.68262 23.6487 7.9565 24.0968 8.40459C24.5449 8.85268 24.8188 9.4457 24.8693 10.0774L24.9227 10.7347C25.0121 11.8534 25.4521 12.9153 26.18 13.7694L26.6067 14.272C27.0177 14.7545 27.2434 15.3676 27.2434 16.0014C27.2434 16.6352 27.0177 17.2483 26.6067 17.7307L26.18 18.2334C25.4521 19.0875 25.0121 20.1494 24.9227 21.268L24.8693 21.9254C24.8188 22.5571 24.5449 23.1501 24.0968 23.5982C23.6487 24.0463 23.0557 24.3201 22.424 24.3707L21.7667 24.424C20.648 24.5135 19.5861 24.9534 18.732 25.6814L18.2293 26.108C17.7469 26.5191 17.1338 26.7448 16.5 26.7448C15.8662 26.7448 15.2531 26.5191 14.7707 26.108L14.268 25.6814C13.4139 24.9534 12.352 24.5135 11.2333 24.424L10.576 24.3707C9.94409 24.3204 9.35075 24.0467 8.90238 23.5986C8.45402 23.1505 8.17996 22.5573 8.12934 21.9254L8.076 21.268C7.98698 20.1496 7.54746 19.0876 6.82 18.2334L6.39334 17.7307C5.98232 17.2483 5.75658 16.6352 5.75658 16.0014C5.75658 15.3676 5.98232 14.7545 6.39334 14.272L6.82 13.7694C7.54795 12.9153 7.98793 11.8534 8.07734 10.7347L8.13067 10.0774C8.18094 9.44547 8.45469 8.85213 8.90281 8.40376C9.35093 7.9554 9.94412 7.68133 10.576 7.63071L11.2333 7.57871C12.352 7.48931 13.4139 7.04932 14.268 6.32138L14.7707 5.89471V5.89338ZM21.4427 12.944C21.57 12.8211 21.6716 12.6739 21.7415 12.5113C21.8114 12.3486 21.8481 12.1736 21.8497 11.9966C21.8512 11.8195 21.8175 11.644 21.7504 11.4801C21.6834 11.3162 21.5844 11.1674 21.4592 11.0422C21.334 10.917 21.1851 10.818 21.0213 10.751C20.8574 10.6839 20.6818 10.6502 20.5048 10.6517C20.3278 10.6533 20.1528 10.69 19.9901 10.7599C19.8275 10.8298 19.6803 10.9314 19.5573 11.0587L11.5573 19.0587C11.43 19.1817 11.3284 19.3288 11.2585 19.4915C11.1887 19.6542 11.1519 19.8291 11.1503 20.0062C11.1488 20.1832 11.1825 20.3588 11.2496 20.5227C11.3166 20.6865 11.4156 20.8354 11.5408 20.9606C11.666 21.0858 11.8149 21.1848 11.9787 21.2518C12.1426 21.3188 12.3182 21.3526 12.4952 21.351C12.6722 21.3495 12.8472 21.3127 13.0099 21.2428C13.1725 21.173 13.3197 21.0714 13.4427 20.944L21.4427 12.944ZM15.1667 12.6667C15.1667 13.1971 14.956 13.7059 14.5809 14.0809C14.2058 14.456 13.6971 14.6667 13.1667 14.6667C12.6362 14.6667 12.1275 14.456 11.7525 14.0809C11.3774 13.7059 11.1667 13.1971 11.1667 12.6667C11.1667 12.1363 11.3774 11.6276 11.7525 11.2525C12.1275 10.8774 12.6362 10.6667 13.1667 10.6667C13.6971 10.6667 14.2058 10.8774 14.5809 11.2525C14.956 11.6276 15.1667 12.1363 15.1667 12.6667ZM19.8333 21.3334C20.3638 21.3334 20.8725 21.1227 21.2476 20.7476C21.6226 20.3725 21.8333 19.8638 21.8333 19.3334C21.8333 18.8029 21.6226 18.2942 21.2476 17.9192C20.8725 17.5441 20.3638 17.3334 19.8333 17.3334C19.3029 17.3334 18.7942 17.5441 18.4191 17.9192C18.0441 18.2942 17.8333 18.8029 17.8333 19.3334C17.8333 19.8638 18.0441 20.3725 18.4191 20.7476C18.7942 21.1227 19.3029 21.3334 19.8333 21.3334Z" fill="#7C7C7C" stroke="white" stroke-width="0.2" mask="url(#path-1-inside-1_0_227)"/>
</g>
<defs>
<clipPath id="clip0_0_227">
<rect width="32" height="32" fill="white" transform="translate(0.5)"/>
</clipPath>
</defs>
</svg>
