<svg width="28" height="28" viewBox="0 0 28 28" fill="none" xmlns="http://www.w3.org/2000/svg">
<path d="M20.6667 27.3333V24.6667H24.6667V20.6667H27.3333V25.3333C27.3333 25.8667 27.0667 26.2667 26.6667 26.6667C26.2667 27.0667 25.7333 27.3333 25.3333 27.3333H20.6667ZM7.33332 27.3333H2.66666C2.13332 27.3333 1.73332 27.0667 1.33332 26.6667C0.933323 26.2667 0.666656 25.7333 0.666656 25.3333V20.6667H3.33332V24.6667H7.33332V27.3333ZM20.6667 0.666664H25.3333C25.8667 0.666664 26.2667 0.933331 26.6667 1.33333C27.0667 1.73333 27.3333 2.13333 27.3333 2.66666V7.33333H24.6667V3.33333H20.6667V0.666664ZM7.33332 0.666664V3.33333H3.33332V7.33333H0.666656V2.66666C0.666656 2.13333 0.933323 1.73333 1.33332 1.33333C1.73332 0.933331 2.13332 0.666664 2.66666 0.666664H7.33332ZM23.3333 12.6667H4.66666V15.3333H23.3333V12.6667Z" fill="#F2F2F2"/>
</svg>
