<svg width="20" height="20" viewBox="0 0 20 20" fill="none" xmlns="http://www.w3.org/2000/svg">
<g clip-path="url(#clip0_0_141)">
<path d="M8.155 14.1475C8.2015 14.1175 8.257 14.104 8.3035 14.0665C8.3155 14.056 8.326 14.0455 8.338 14.035C8.338 14.0335 8.338 14.032 8.3365 14.0305C8.281 13.8625 8.4655 13.7635 8.5915 13.6885C8.641 13.6615 8.695 13.651 8.7445 13.6165C8.8045 13.5745 8.8555 13.522 8.9185 13.483C9.0085 13.429 9.1105 13.4215 9.199 13.369C9.301 13.306 9.367 13.201 9.4735 13.1545C9.655 13.0735 9.8425 13.012 10.021 12.931C10.0405 12.9145 10.06 12.9055 10.078 12.9055C10.096 12.8965 10.1155 12.8905 10.132 12.8815C10.2565 12.817 10.357 12.742 10.453 12.637C10.4815 12.604 10.558 12.52 10.6 12.55C10.687 12.616 10.657 12.9355 10.6555 13.0315C10.6555 13.135 10.657 13.2385 10.6585 13.3405C10.684 14.569 10.834 15.7045 10.927 16.7785C10.9375 16.9045 10.9495 17.0305 10.96 17.155C10.9645 17.2195 10.9525 17.2375 10.939 17.293C10.9285 17.3395 10.9495 17.389 10.918 17.431C10.8685 17.5 10.7845 17.5765 10.717 17.632C10.708 17.6395 10.6975 17.647 10.687 17.6545C10.6885 17.692 10.6975 17.728 10.675 17.7625C10.6285 17.8345 10.5475 17.914 10.4845 17.974C10.3105 18.1375 10.1185 18.274 9.9175 18.4015C9.7885 18.484 9.6475 18.5725 9.5335 18.6745C9.4075 18.7885 9.226 18.9685 9.169 18.7315C9.1165 18.52 9.058 18.3085 9.0025 18.0925C8.8795 17.626 8.758 17.1445 8.596 16.6615C8.3785 16.012 8.149 15.358 7.9795 14.695C7.9645 14.6335 7.9405 14.5645 7.9165 14.506C7.852 14.338 8.032 14.2285 8.155 14.1475Z" fill="#ED6C30"/>
<path d="M9.5155 19.0315C9.9505 18.691 10.108 18.5365 10.4365 18.214C10.741 17.917 11.4565 17.2285 11.788 16.7815C11.9755 16.5265 12.0775 16.3645 11.911 16.126C11.8465 16.0345 11.716 16.0225 11.6125 16.0435C11.455 16.0765 11.332 16.1605 11.203 16.258C10.8115 16.555 10.0405 17.2105 9.6775 17.539C9.5155 17.686 9.31 17.9035 9.1555 18.061C8.734 18.4915 8.443 18.94 8.7175 19.2025C8.9665 19.4365 9.316 19.1875 9.5155 19.0315Z" fill="#ED6C30"/>
<path d="M5.6275 11.704C5.6575 11.6575 5.671 11.602 5.7085 11.554C5.719 11.542 5.7295 11.5315 5.74 11.5195C5.7415 11.521 5.7445 11.521 5.746 11.521C5.914 11.578 6.013 11.392 6.088 11.2645C6.115 11.2165 6.1255 11.161 6.1615 11.1115C6.2035 11.0515 6.256 11.0005 6.2935 10.9375C6.3475 10.8475 6.3565 10.7455 6.409 10.657C6.4705 10.555 6.5755 10.4905 6.6235 10.3825C6.7045 10.201 6.766 10.015 6.847 9.83503C6.8635 9.81553 6.8725 9.79453 6.8725 9.77653C6.8815 9.75853 6.8875 9.73903 6.8965 9.72253C6.961 9.59953 7.036 9.49753 7.141 9.40153C7.1725 9.37453 7.2565 9.29803 7.2265 9.25753C7.162 9.17053 6.841 9.20053 6.745 9.20203C6.6415 9.20203 6.538 9.19903 6.4375 9.19753C5.2105 9.17203 4.075 9.02203 2.9995 8.93053C2.8735 8.92003 2.7475 8.90653 2.623 8.89753C2.56 8.89153 2.5405 8.90503 2.4865 8.91703C2.44 8.92753 2.3905 8.90653 2.3485 8.93803C2.278 8.98903 2.203 9.07303 2.1475 9.13903C2.14 9.14803 2.1325 9.15853 2.125 9.17053C2.089 9.16753 2.0515 9.15853 2.017 9.18253C1.945 9.23053 1.8655 9.31003 1.807 9.37303C1.6435 9.54853 1.507 9.74053 1.378 9.94003C1.2955 10.069 1.207 10.21 1.105 10.324C0.988 10.45 0.808001 10.63 1.045 10.6885C1.255 10.741 1.4665 10.7995 1.684 10.855C2.1505 10.978 2.6305 11.0995 3.1165 11.2615C3.766 11.4775 4.4185 11.7085 5.083 11.8765C5.1445 11.893 5.212 11.9155 5.2735 11.9395C5.4355 12.0055 5.545 11.8255 5.6275 11.704Z" fill="#ED6C30"/>
<path d="M0.7435 10.342C1.0825 9.90701 1.2385 9.74951 1.5595 9.42101C1.858 9.11651 2.545 8.40251 2.9935 8.07101C3.2485 7.88201 3.4105 7.78151 3.649 7.94801C3.7405 8.01101 3.754 8.14301 3.7315 8.24651C3.6985 8.40251 3.6145 8.52551 3.517 8.65451C3.2185 9.04601 2.5645 9.81701 2.236 10.18C2.089 10.342 1.87 10.549 1.714 10.702C1.2835 11.1235 0.835 11.4145 0.574 11.14C0.3385 10.891 0.5875 10.543 0.7435 10.342Z" fill="#ED6C30"/>
<path d="M16.1125 4.13802C15.967 3.98952 16.0015 3.72252 16.192 3.54252C16.729 3.06252 17.2735 2.57352 17.824 2.08302C17.9095 2.00502 17.9755 1.91802 18.0655 1.84902C18.241 1.71552 18.4135 1.57002 18.58 1.42152C18.727 1.28952 18.874 1.11102 19.0585 1.03452C19.201 0.976016 19.4215 0.995516 19.492 1.11102C19.6315 1.33302 19.252 1.69152 19.0675 1.85202C18.7195 2.15202 18.397 2.48052 18.0685 2.80002C17.6185 3.23802 17.1745 3.67152 16.723 4.09152C16.5325 4.26852 16.2595 4.28952 16.1125 4.13802Z" fill="#ED6C30"/>
<path d="M10.129 5.55854C10.5445 5.18354 10.9765 4.82804 11.4235 4.49504C11.7625 4.24454 12.073 4.03454 12.3205 3.88004C12.727 3.62504 13.147 3.38954 13.5775 3.17504C14.131 2.89904 14.6725 2.68004 15.193 2.51204C15.7615 2.32754 16.357 2.17904 16.867 2.12054C17.23 2.07854 17.5975 2.07854 17.857 2.22404C18.1465 2.38454 18.274 2.79404 18.2545 3.17654C18.2155 3.91304 17.9965 4.75304 17.635 5.61704C17.4614 6.03708 17.2579 6.44412 17.026 6.83504C15.1915 9.92804 12.2335 12.298 9.0415 14.014C8.713 14.188 8.3575 14.3305 8.0155 14.5345C8.002 14.5435 7.987 14.5465 7.972 14.5555C7.8985 14.5915 7.8535 14.6095 7.843 14.6065C7.291 14.8045 6.496 14.5645 5.8795 13.9315C5.257 13.3015 5.0395 12.5125 5.2555 11.9605C5.2555 11.9605 5.2765 11.92 5.3155 11.8465C6.5575 9.53204 8.161 7.33004 10.129 5.55854Z" fill="#78A3AD"/>
<path d="M18.3445 4.92851C18.3625 4.84151 18.3715 4.74851 18.394 4.67951C18.5185 4.27901 18.586 3.88601 18.5935 3.47201C18.5995 3.11501 18.5395 2.73701 18.427 2.40251C18.3415 2.14451 18.163 1.76651 17.9005 1.67201C17.5885 1.55951 17.269 1.59251 16.9435 1.61651C16.6435 1.63901 16.336 1.64651 16.0525 1.72301C15.763 1.79951 15.4765 1.97051 15.256 2.17001C15.1765 2.24201 15.019 2.37701 15.0025 2.48951C14.9815 2.62901 15.1435 2.85401 15.2065 2.97551C15.3715 3.29351 15.6535 3.52901 15.877 3.80501C16.18 4.18601 16.5325 4.44101 16.9435 4.70801C17.176 4.85801 17.404 5.02151 17.656 5.13401C17.7925 5.19551 18.115 5.25251 18.241 5.14601C18.2995 5.09351 18.3265 5.01401 18.3445 4.92851Z" fill="#ED6C30"/>
<path d="M13.3825 5.64699C13.3085 5.71604 13.2488 5.79901 13.2069 5.89117C13.165 5.98332 13.1417 6.08284 13.1384 6.18402C13.135 6.28519 13.1517 6.38604 13.1874 6.48076C13.2231 6.57548 13.2772 6.66222 13.3465 6.736C13.4156 6.80993 13.4987 6.86948 13.5909 6.91124C13.6831 6.953 13.7827 6.97615 13.8838 6.97936C13.985 6.98256 14.0858 6.96576 14.1805 6.92992C14.2752 6.89408 14.3618 6.8399 14.4355 6.7705C14.5096 6.7013 14.5693 6.61814 14.6112 6.5258C14.653 6.43346 14.6762 6.33375 14.6794 6.23242C14.6826 6.13108 14.6658 6.03011 14.6298 5.93531C14.5939 5.8405 14.5396 5.75374 14.47 5.67999C14.182 5.36949 13.6945 5.35449 13.3825 5.64699Z" fill="white"/>
<path d="M12.3939 8.68979C12.7044 8.39845 12.72 7.91053 12.4287 7.59998C12.1373 7.28944 11.6494 7.27386 11.3389 7.5652C11.0283 7.85654 11.0128 8.34446 11.3041 8.65501C11.5954 8.96555 12.0834 8.98112 12.3939 8.68979Z" fill="white"/>
<path d="M9.2935 9.4825C8.9845 9.7735 8.9665 10.261 9.259 10.5715C9.39893 10.7207 9.59235 10.8083 9.7968 10.8151C10.0013 10.8218 10.2 10.7472 10.3495 10.6075C10.66 10.315 10.675 9.8275 10.384 9.517C10.2439 9.36798 10.0503 9.28066 9.84589 9.27419C9.64144 9.26772 9.44277 9.34264 9.2935 9.4825Z" fill="white"/>
<path d="M5.2 15.079C5.6335 14.7385 5.791 14.5825 6.121 14.2615C6.4255 13.9645 7.1395 13.276 7.471 12.8275C7.66 12.5725 7.759 12.4105 7.594 12.172C7.5295 12.0805 7.399 12.0685 7.2955 12.0895C7.1395 12.121 7.0165 12.2065 6.886 12.304C6.4945 12.601 5.7235 13.255 5.3605 13.585C5.1985 13.732 4.9915 13.9495 4.8385 14.107C4.4185 14.5375 4.126 14.986 4.4005 15.247C4.6495 15.484 5.0005 15.235 5.2 15.079Z" fill="#ED6C30"/>
</g>
<defs>
<clipPath id="clip0_0_141">
<rect width="19.2" height="19.2" fill="white" transform="translate(0.4 0.400024)"/>
</clipPath>
</defs>
</svg>

