<svg width="32" height="32" viewBox="0 0 32 32" fill="none" xmlns="http://www.w3.org/2000/svg">
<path d="M16 2.66666C8.64799 2.66666 2.66666 8.648 2.66666 16V21.524C2.66666 22.8893 3.86266 24 5.33332 24H6.66666C7.02028 24 7.35942 23.8595 7.60947 23.6095C7.85951 23.3594 7.99999 23.0203 7.99999 22.6667V15.8093C7.99999 15.4557 7.85951 15.1166 7.60947 14.8665C7.35942 14.6165 7.02028 14.476 6.66666 14.476H5.45599C6.19732 9.316 10.6373 5.33333 16 5.33333C21.3627 5.33333 25.8027 9.316 26.544 14.476H25.3333C24.9797 14.476 24.6406 14.6165 24.3905 14.8665C24.1405 15.1166 24 15.4557 24 15.8093V24C24 25.4707 22.804 26.6667 21.3333 26.6667H18.6667V25.3333H13.3333V29.3333H21.3333C24.2747 29.3333 26.6667 26.9413 26.6667 24C28.1373 24 29.3333 22.8893 29.3333 21.524V16C29.3333 8.648 23.352 2.66666 16 2.66666Z" fill="#F2F2F2"/>
</svg>

