<svg width="44" height="44" viewBox="0 0 48 48" fill="none" xmlns="http://www.w3.org/2000/svg">
<path d="M44.444 31.536L43.994 29.286H38.966L38.166 31.52L34.136 31.528C36.0546 26.9143 37.9772 22.3023 39.904 17.692C40.232 16.91 40.814 16.512 41.672 16.516C42.328 16.522 43.398 16.522 44.884 16.518L48 31.53L44.444 31.536ZM40.098 26.204H43.338L42.128 20.564L40.098 26.204ZM14.12 16.514L18.172 16.518L11.908 31.538L7.806 31.534C6.7745 27.5666 5.75583 23.5959 4.75 19.622C4.55 18.83 4.154 18.276 3.392 18.014C2.26645 17.6368 1.13567 17.2755 0 16.93L0 16.52H6.474C7.594 16.52 8.248 17.062 8.458 18.174C8.67 19.288 9.202 22.124 10.058 26.682L14.12 16.514ZM23.74 16.518L20.536 31.534L16.68 31.53L19.88 16.514L23.74 16.518ZM31.56 16.24C32.714 16.24 34.168 16.6 35.004 16.93L34.328 20.044C33.572 19.74 32.328 19.33 31.282 19.344C29.762 19.37 28.822 20.008 28.822 20.62C28.822 21.616 30.454 22.118 32.134 23.206C34.052 24.446 34.304 25.56 34.28 26.77C34.254 29.282 32.134 31.76 27.662 31.76C25.622 31.73 24.886 31.558 23.222 30.968L23.926 27.718C25.62 28.428 26.338 28.654 27.786 28.654C29.112 28.654 30.25 28.118 30.26 27.184C30.268 26.52 29.86 26.19 28.372 25.37C26.884 24.548 24.796 23.41 24.824 21.126C24.858 18.202 27.628 16.24 31.562 16.24H31.56Z" fill="#BCBCBC"/>


</svg>
